<?xml version="1.0" encoding="UTF-8"?><svg id="Qi2-Logo_Black" xmlns="http://www.w3.org/2000/svg" viewBox="0 0 792 612"><defs><style>.cls-1{fill:none;}</style></defs><g><g><g><path d="M307.54,413.64v44.55s0,46.44,44.66,49.65c4.96,.17,4.96-4.96,4.96-4.96V168.01s0-4.95-4.96-6.98c-42.16-16.3-91.66-9.79-128.73,21.32-54.24,45.51-61.31,126.38-15.8,180.62,24.57,29.28,59.45,44.81,94.88,45.74,4.99,0,4.99,4.93,4.99,4.93Zm0-207.22v148.27s0,2.76-2.77,2.76c-21.56-.32-42.86-9.64-57.81-27.45-27.31-32.55-23.06-81.06,9.48-108.37,14.11-11.85,31.24-17.73,48.33-17.97,2.77,0,2.77,2.76,2.77,2.76Z"/><path d="M382.8,186.87v187.39c0,4.94,0,8.85,4.96,4.97,.17-.15,.35-.3,.53-.45,54.24-45.51,61.32-126.38,15.8-180.62-5.03-6-10.51-11.41-16.33-16.24-4.96-3.92-4.96,.03-4.96,4.95Z"/></g><g id="HvQyBM"><path d="M492.28,250.77h-31.44c-.65-7.67-.24-15.19,3.09-22.22,7.53-15.89,20.11-24.45,37.57-24.59,33.08-.26,38.97-.11,72.05-.06,22.92,.03,40.86,18.1,40.77,41.23-.03,7.09,.14,14.36-1.31,21.23-3.52,16.77-19.28,29.65-36.25,30.64-2,.12-76.32,.2-78.23,.62-3.55,.79-6.08,4.03-6.18,7.67-.2,6.84-.05,12.57-.05,19.81h88.87c18.24,0,33.03,14.79,33.03,33.03h0s-153.57,0-153.57,0h0c0-17.12-.02-34.23,0-51.35,.04-23.59,17.64-41.52,41.03-41.59,32.32-.09,73.03-.11,74.58-.48,3.86-.93,6.31-3.85,6.44-7.81,.14-4.1,.13-8.2,.01-12.3-.12-4.08-3.05-7.63-7.06-8.36-1.38-.25-74.67-.27-75.99-.05-4.06,.66-7.16,4.14-7.35,8.25-.09,1.99-.01,3.99-.01,6.32Z"/></g></g><circle cx="382.5" cy="129.55" r="25.4"/></g><rect class="cls-1" width="792" height="612"/></svg>
